<svg id="visual" viewBox="0 0 960 540" width="960" height="540" xmlns="http://www.w3.org/2000/svg" xmlns:xlink="http://www.w3.org/1999/xlink" version="1.1"><rect x="0" y="0" width="960" height="540" fill="#1F1D2B"></rect><defs><linearGradient id="grad1_0" x1="43.8%" y1="0%" x2="100%" y2="100%"><stop offset="14.444444444444446%" stop-color="#5499f5" stop-opacity="1"></stop><stop offset="85.55555555555554%" stop-color="#5499f5" stop-opacity="1"></stop></linearGradient></defs><defs><linearGradient id="grad1_1" x1="43.8%" y1="0%" x2="100%" y2="100%"><stop offset="14.444444444444446%" stop-color="#5499f5" stop-opacity="1"></stop><stop offset="85.55555555555554%" stop-color="#5584d5" stop-opacity="1"></stop></linearGradient></defs><defs><linearGradient id="grad1_2" x1="43.8%" y1="0%" x2="100%" y2="100%"><stop offset="14.444444444444446%" stop-color="#5271b5" stop-opacity="1"></stop><stop offset="85.55555555555554%" stop-color="#5584d5" stop-opacity="1"></stop></linearGradient></defs><defs><linearGradient id="grad1_3" x1="43.8%" y1="0%" x2="100%" y2="100%"><stop offset="14.444444444444446%" stop-color="#5271b5" stop-opacity="1"></stop><stop offset="85.55555555555554%" stop-color="#4c5e97" stop-opacity="1"></stop></linearGradient></defs><defs><linearGradient id="grad1_4" x1="43.8%" y1="0%" x2="100%" y2="100%"><stop offset="14.444444444444446%" stop-color="#434c79" stop-opacity="1"></stop><stop offset="85.55555555555554%" stop-color="#4c5e97" stop-opacity="1"></stop></linearGradient></defs><defs><linearGradient id="grad1_5" x1="43.8%" y1="0%" x2="100%" y2="100%"><stop offset="14.444444444444446%" stop-color="#434c79" stop-opacity="1"></stop><stop offset="85.55555555555554%" stop-color="#393b5e" stop-opacity="1"></stop></linearGradient></defs><defs><linearGradient id="grad1_6" x1="43.8%" y1="0%" x2="100%" y2="100%"><stop offset="14.444444444444446%" stop-color="#2c2c43" stop-opacity="1"></stop><stop offset="85.55555555555554%" stop-color="#393b5e" stop-opacity="1"></stop></linearGradient></defs><defs><linearGradient id="grad1_7" x1="43.8%" y1="0%" x2="100%" y2="100%"><stop offset="14.444444444444446%" stop-color="#2c2c43" stop-opacity="1"></stop><stop offset="85.55555555555554%" stop-color="#1f1d2b" stop-opacity="1"></stop></linearGradient></defs><defs><linearGradient id="grad2_0" x1="0%" y1="0%" x2="56.3%" y2="100%"><stop offset="14.444444444444446%" stop-color="#5499f5" stop-opacity="1"></stop><stop offset="85.55555555555554%" stop-color="#5499f5" stop-opacity="1"></stop></linearGradient></defs><defs><linearGradient id="grad2_1" x1="0%" y1="0%" x2="56.3%" y2="100%"><stop offset="14.444444444444446%" stop-color="#5584d5" stop-opacity="1"></stop><stop offset="85.55555555555554%" stop-color="#5499f5" stop-opacity="1"></stop></linearGradient></defs><defs><linearGradient id="grad2_2" x1="0%" y1="0%" x2="56.3%" y2="100%"><stop offset="14.444444444444446%" stop-color="#5584d5" stop-opacity="1"></stop><stop offset="85.55555555555554%" stop-color="#5271b5" stop-opacity="1"></stop></linearGradient></defs><defs><linearGradient id="grad2_3" x1="0%" y1="0%" x2="56.3%" y2="100%"><stop offset="14.444444444444446%" stop-color="#4c5e97" stop-opacity="1"></stop><stop offset="85.55555555555554%" stop-color="#5271b5" stop-opacity="1"></stop></linearGradient></defs><defs><linearGradient id="grad2_4" x1="0%" y1="0%" x2="56.3%" y2="100%"><stop offset="14.444444444444446%" stop-color="#4c5e97" stop-opacity="1"></stop><stop offset="85.55555555555554%" stop-color="#434c79" stop-opacity="1"></stop></linearGradient></defs><defs><linearGradient id="grad2_5" x1="0%" y1="0%" x2="56.3%" y2="100%"><stop offset="14.444444444444446%" stop-color="#393b5e" stop-opacity="1"></stop><stop offset="85.55555555555554%" stop-color="#434c79" stop-opacity="1"></stop></linearGradient></defs><defs><linearGradient id="grad2_6" x1="0%" y1="0%" x2="56.3%" y2="100%"><stop offset="14.444444444444446%" stop-color="#393b5e" stop-opacity="1"></stop><stop offset="85.55555555555554%" stop-color="#2c2c43" stop-opacity="1"></stop></linearGradient></defs><defs><linearGradient id="grad2_7" x1="0%" y1="0%" x2="56.3%" y2="100%"><stop offset="14.444444444444446%" stop-color="#1f1d2b" stop-opacity="1"></stop><stop offset="85.55555555555554%" stop-color="#2c2c43" stop-opacity="1"></stop></linearGradient></defs><g transform="translate(960, 0)"><path d="M0 540C-40 483.6 -80.1 427.1 -136 418.5C-191.9 409.8 -263.6 448.9 -317.4 436.9C-371.2 424.8 -407.1 361.6 -415.8 302.1C-424.6 242.7 -406.1 186.9 -422.3 137.2C-438.4 87.5 -489.2 43.7 -540 0L0 0Z" fill="#262437"></path><path d="M0 472.5C-35 423.1 -70.1 373.7 -119 366.2C-167.9 358.6 -230.6 392.8 -277.7 382.3C-324.8 371.7 -356.2 316.4 -363.9 264.4C-371.5 212.3 -355.3 163.6 -369.5 120.1C-383.6 76.5 -428.1 38.3 -472.5 0L0 0Z" fill="#333350"></path><path d="M0 405C-30 362.7 -60.1 320.3 -102 313.8C-143.9 307.4 -197.7 336.7 -238.1 327.7C-278.4 318.6 -305.3 271.2 -311.9 226.6C-318.4 182 -304.6 140.2 -316.7 102.9C-328.8 65.6 -366.9 32.8 -405 0L0 0Z" fill="#3e436b"></path><path d="M0 337.5C-25 302.2 -50.1 267 -85 261.5C-119.9 256.1 -164.7 280.6 -198.4 273C-232 265.5 -254.4 226 -259.9 188.8C-265.3 151.7 -253.8 116.8 -263.9 85.8C-274 54.7 -305.8 27.3 -337.5 0L0 0Z" fill="#485588"></path><path d="M0 270C-20 241.8 -40 213.6 -68 209.2C-95.9 204.9 -131.8 224.5 -158.7 218.4C-185.6 212.4 -203.6 180.8 -207.9 151.1C-212.3 121.3 -203.1 93.5 -211.1 68.6C-219.2 43.7 -244.6 21.9 -270 0L0 0Z" fill="#5067a6"></path><path d="M0 202.5C-15 181.3 -30 160.2 -51 156.9C-71.9 153.7 -98.8 168.3 -119 163.8C-139.2 159.3 -152.7 135.6 -155.9 113.3C-159.2 91 -152.3 70.1 -158.4 51.5C-164.4 32.8 -183.5 16.4 -202.5 0L0 0Z" fill="#547ac5"></path><path d="M0 135C-10 120.9 -20 106.8 -34 104.6C-48 102.5 -65.9 112.2 -79.4 109.2C-92.8 106.2 -101.8 90.4 -104 75.5C-106.1 60.7 -101.5 46.7 -105.6 34.3C-109.6 21.9 -122.3 10.9 -135 0L0 0Z" fill="#558fe5"></path><path d="M0 67.5C-5 60.4 -10 53.4 -17 52.3C-24 51.2 -32.9 56.1 -39.7 54.6C-46.4 53.1 -50.9 45.2 -52 37.8C-53.1 30.3 -50.8 23.4 -52.8 17.2C-54.8 10.9 -61.2 5.5 -67.5 0L0 0Z" fill="#5499f5"></path></g><g transform="translate(0, 540)"><path d="M0 -540C60.1 -531 120.3 -522 155.4 -478.4C190.6 -434.8 200.8 -356.6 232.2 -319.6C263.5 -282.5 316 -286.6 371.3 -269.8C426.7 -253 485 -215.3 513.6 -166.9C542.2 -118.4 541.1 -59.2 540 0L0 0Z" fill="#262437"></path><path d="M0 -472.5C52.6 -464.6 105.2 -456.7 136 -418.6C166.8 -380.4 175.7 -312 203.2 -279.6C230.6 -247.2 276.5 -250.8 324.9 -236.1C373.4 -221.4 424.4 -188.4 449.4 -146C474.4 -103.6 473.4 -51.8 472.5 0L0 0Z" fill="#333350"></path><path d="M0 -405C45.1 -398.2 90.2 -391.5 116.6 -358.8C143 -326.1 150.6 -267.5 174.1 -239.7C197.6 -211.9 237 -214.9 278.5 -202.3C320 -189.7 363.7 -161.5 385.2 -125.2C406.6 -88.8 405.8 -44.4 405 0L0 0Z" fill="#3e436b"></path><path d="M0 -337.5C37.6 -331.9 75.2 -326.2 97.1 -299C119.1 -271.7 125.5 -222.9 145.1 -199.7C164.7 -176.6 197.5 -179.1 232.1 -168.6C266.7 -158.1 303.1 -134.6 321 -104.3C338.9 -74 338.2 -37 337.5 0L0 0Z" fill="#485588"></path><path d="M0 -270C30.1 -265.5 60.1 -261 77.7 -239.2C95.3 -217.4 100.4 -178.3 116.1 -159.8C131.8 -141.3 158 -143.3 185.7 -134.9C213.4 -126.5 242.5 -107.7 256.8 -83.4C271.1 -59.2 270.5 -29.6 270 0L0 0Z" fill="#5067a6"></path><path d="M0 -202.5C22.5 -199.1 45.1 -195.7 58.3 -179.4C71.5 -163 75.3 -133.7 87.1 -119.8C98.8 -105.9 118.5 -107.5 139.3 -101.2C160 -94.9 181.9 -80.7 192.6 -62.6C203.3 -44.4 202.9 -22.2 202.5 0L0 0Z" fill="#547ac5"></path><path d="M0 -135C15 -132.7 30.1 -130.5 38.9 -119.6C47.7 -108.7 50.2 -89.2 58 -79.9C65.9 -70.6 79 -71.6 92.8 -67.4C106.7 -63.2 121.2 -53.8 128.4 -41.7C135.5 -29.6 135.3 -14.8 135 0L0 0Z" fill="#558fe5"></path><path d="M0 -67.5C7.5 -66.4 15 -65.2 19.4 -59.8C23.8 -54.3 25.1 -44.6 29 -39.9C32.9 -35.3 39.5 -35.8 46.4 -33.7C53.3 -31.6 60.6 -26.9 64.2 -20.9C67.8 -14.8 67.6 -7.4 67.5 0L0 0Z" fill="#5499f5"></path></g></svg>